# AST/ASF file generated using VICON BodyLanguage
# -----------------------------------------------
:version 1.10
:name VICON
:units
  mass 1.0
  length 0.45
  angle deg
:documentation
   .ast/.asf automatically generated from VICON data using
   VICON BodyBuilder and BodyLanguage model FoxedUp or BRILLIANT.MOD
:root
   order TX TY TZ RX RY RZ
   axis XYZ
   position 0 0 0  
   orientation 0 0 0 
:bonedata
  begin
     id 1 
     name lhipjoint
     direction 0.561001 -0.76473 0.316963 
     length 2.4722 
     axis 0 0 0  XYZ
  end
  begin
     id 2 
     name lfemur
     direction 0.34202 -0.939693 0  
     length 7.59403  
     axis 0 0 20  XYZ
    dof rx ry rz
    limits (-160.0 20.0)
           (-70.0 70.0)
           (-60.0 70.0)
  end
  begin
     id 3 
     name ltibia
     direction 0.34202 -0.939693 0   
     length 7.89655   
     axis 0 0 20   XYZ
    dof rx
    limits (-10.0 170.0)
  end
  begin
     id 4 
     name lfoot
     direction 0.061296 -0.168409 0.98381   
     length 2.73287   
     axis -90 7.62852e-016 20   XYZ
    dof rx rz
    limits (-45.0 90.0)
           (-70.0 20.0)
  end
  begin
     id 5 
     name ltoes
     direction 1.53547e-011 -4.21984e-011 1   
     length 1.37057   
     axis -90 7.62852e-016 20   XYZ
    dof rx
    limits (-90.0 20.0)
  end
  begin
     id 6 
     name rhipjoint
     direction -0.559611 -0.765599 0.317323   
     length 2.46939  
     axis 0 0 0  XYZ 
  end
  begin
     id 7 
     name rfemur
     direction -0.34202 -0.939693 0   
     length 7.53712   
     axis 0 0 -20   XYZ
    dof rx ry rz
    limits (-160.0 20.0)
           (-70.0 70.0)
           (-70.0 60.0)
  end
  begin
     id 8 
     name rtibia
     direction -0.34202 -0.939693 0   
     length 8.12549   
     axis 0 0 -20   XYZ
    dof rx
    limits (-10.0 170.0)
 end
 begin
     id 9 
     name rfoot
     direction -0.066984 -0.184037 0.980634   
     length 2.67541  
     axis -90 -7.62852e-016 -20   XYZ
    dof rx rz
    limits (-45.0 90.0)
           (-20.0 70.0)
  end
  begin
     id 10 
     name rtoes
     direction -1.53549e-011 -4.21786e-011 1   
     length 1.34085   
     axis -90 -7.62852e-016 -20   XYZ
    dof rx
    limits (-90.0 20.0)
  end
  begin
     id 11 
     name lowerback
     direction -0.0522728 0.992594 -0.109658   
     length 2.05633   
     axis 0 0 0   XYZ
    dof rx ry rz
    limits (-20.0 45.0)
           (-30.0 30.0)
           (-30.0 30.0)
  end
  begin
     id 12 
     name upperback
     direction 0.00589338 0.999977 0.00335704   
     length 2.05845   
     axis 0 0 0   XYZ
    dof rx ry rz
    limits (-20.0 45.0)
           (-30.0 30.0)
           (-30.0 30.0)
  end
  begin
     id 13 
     name thorax
     direction 0.0292928 0.998059 0.0549487   
     length 2.09281   
     axis 0 0 0   XYZ
    dof rx ry rz
    limits (-20.0 45.0)
           (-30.0 30.0)
           (-30.0 30.0)
  end
  begin
     id 14 
     name lowerneck
     direction 0.0356368 0.980775 0.191858   
     length 1.84767   
     axis 0 0 0   XYZ
    dof rx ry rz
    limits (-20.0 45.0)
           (-30.0 30.0)
           (-30.0 30.0)
  end
  begin
     id 15 
     name upperneck
     direction -0.0227605 0.98931 -0.14404   
     length 1.89582   
     axis 0 0 0   XYZ
    dof rx ry rz
    limits (-20.0 45.0)
           (-30.0 30.0)
           (-30.0 30.0)
  end
  begin
     id 16
     name head
     direction -0.00932985 0.997511 -0.0698904  
     length 1.90213  
     axis 0 0 0   XYZ
    dof rx ry rz
    limits (-20.0 45.0)
           (-30.0 30.0)
           (-30.0 30.0)
  end
  begin
     id 17 
     name lclavicle
     direction 0.873442 0.479511 0.0846686  
     length 3.41193  
     axis 0 0 0   XYZ
    dof ry rz
    limits (-20.0 10.0)
           (0.0 20.0)
  end
  begin
     id 18 
     name lhumerus
     direction 1 -4.4897e-011 -5.62117e-018   
     length 5.59864   
     axis 180 -30 -90   XYZ
    dof rx ry rz
    limits (-60.0 90.0)
           (-90.0 90.0)
           (-90.0 90.0)
  end
  begin
     id 19
     name lradius
     direction 1 -4.48966e-011 -6.26295e-027   
     length 3.59542   
     axis 180 -30 -90   XYZ
    dof rx
    limits (-10.0 170.0)
  end
  begin
     id 20
     name lwrist
     direction 1 -4.48947e-011 -1.74096e-026   
     length 1.79771   
     axis 1.04567e-014 90 90   XYZ
    dof ry
    limits (-180.0 0.0)
 end
  begin
     id 21 
     name lhand
     direction 1 -4.49085e-011 -3.48469e-026   
     length 0.572014   
     axis 2.22196e-014 90 90   XYZ
    dof rx rz
    limits (-90.0 90.0)
           (-45.0 45.0)
  end
  begin
     id 22 
     name lfingers
     direction 1 -4.48884e-011 -6.96135e-026   
     length 0.461173   
     axis 4.44383e-014 90 90   XYZ
    dof rx
    limits (0.0 90.0)
  end
  begin
     id 23
     name lthumb
     direction 0.707107 -6.34976e-011 0.707107   
     length 0.662154   
     axis -90 45 -5.4397e-014   XYZ
    dof rx rz
    limits (-45.0 45.0)
           (-45.0 45.0)
  end
  begin
     id 24 
     name rclavicle
     direction -0.890242 0.443271 0.104786   
     length 3.46753  
     axis 0 0 0   XYZ 
    dof ry rz
    limits (-10.0 20.0)
           (-20.0 0.0)
  end
  begin
     id 25 
     name rhumerus
     direction -1 -4.48963e-011 -5.41723e-018  
     length 5.8094   
     axis 180 30 90   XYZ
    dof rx ry rz
    limits (-90.0 60.0)
           (-90.0 90.0)
           (-90.0 90.0)
  end
  begin
     id 26 
     name rradius
     direction -1 -4.48958e-011 -6.51059e-027   
     length 3.66953   
     axis 180 30 90   XYZ
    dof rx
    limits (-10.0 170.0)
  end
  begin
     id 27 
     name rwrist
     direction -1 -4.48975e-011 -1.74124e-026   
     length 1.83476   
     axis 1.04567e-014 -90 -90   XYZ
    dof ry
    limits (-180.0 0.0)
  end
  begin
     id 28
     name rhand
     direction -1 -4.49013e-011 -3.48326e-026   
     length 0.57843   
     axis 2.22196e-014 -90 -90   XYZ
    dof rx rz
    limits (-90.0 90.0)
           (-45.0 45.0)
  end
  begin
     id 29
     name rfingers
     direction -1 -4.49023e-011 -6.9669e-026   
     length 0.466345   
     axis 4.44383e-014 -90 -90   XYZ
    dof rx
    limits (0.0 90.0)
  end
  begin
     id 30
     name rthumb
     direction -0.707107 -6.34926e-011 0.707107   
     length 0.669581   
     axis -90 -45 5.4397e-014   XYZ
    dof rx rz
    limits (-45.0 45.0)
           (-45.0 45.0)
  end
:hierarchy
  begin
    root lhipjoint rhipjoint lowerback
    lhipjoint lfemur
    lfemur ltibia
    ltibia lfoot
    lfoot ltoes
    rhipjoint rfemur
    rfemur rtibia
    rtibia rfoot
    rfoot rtoes
    lowerback upperback
    upperback thorax
    thorax lowerneck lclavicle rclavicle
    lowerneck upperneck
    upperneck head
    lclavicle lhumerus
    lhumerus lradius
    lradius lwrist
    lwrist lhand lthumb
    lhand lfingers
    rclavicle rhumerus
    rhumerus rradius
    rradius rwrist
    rwrist rhand rthumb
    rhand rfingers
  end

#!OML:ASF H:\SkateBoarding\Project 1\Capture day 1\Session 1\Skater.ASF
:FULLY-SPECIFIED
:DEGREES
294
root 6.45879 18.7667 28.8898 -20.7728 77.198 -25.7013
lowerback 13.3546 -0.994967 -7.59074
upperback 0.0969044 -2.50595 -0.720799
thorax -7.11618 -0.948833 3.99238
lowerneck -13.6029 -9.78895 -4.48019
upperneck 42.3579 -14.6464 5.18655
head 19.4184 -5.40373 0.486648
rclavicle 3.61788e-014 -3.81667e-014
rhumerus -42.8166 -12.1492 -80.4225
rradius 30.9892
rwrist -6.91628
rhand -25.7105 -10.8365
rfingers 7.12502
rthumb 0.825397 -40.8146
lclavicle 3.61788e-014 -3.81667e-014
lhumerus -39.9752 -0.854235 72.8981
lradius 29.9984
lwrist 21.6318
lhand -24.5742 13.8177
lfingers 7.12502
lthumb 1.92279 43.7887
rfemur -31.9037 -0.163841 22.6242
rtibia 58.3822
rfoot -32.3366 13.1372
rtoes -11.1033
lfemur -20.7456 -0.939133 -5.47625
ltibia 54.7451
lfoot -43.8232 -8.52321
ltoes -16.8615
295
root 6.47257 18.7308 29.3019 -20.1669 77.0668 -25.029
lowerback 13.1973 -0.911126 -7.66718
upperback 0.0684029 -2.39734 -0.767978
thorax -7.07084 -0.895663 3.96001
lowerneck -13.5767 -9.85301 -4.50609
upperneck 42.431 -14.7521 5.20558
head 19.475 -5.44169 0.479295
rclavicle -1.55052e-014 1.27222e-014
rhumerus -42.411 -11.7714 -80.7405
rradius 31.3639
rwrist -7.23041
rhand -26.0361 -10.9816
rfingers 7.12502
rthumb 0.510912 -40.9607
lclavicle -1.55052e-014 1.27222e-014
lhumerus -40.2563 0.059309 71.9479
lradius 29.1299
lwrist 20.6585
lhand -24.3675 14.0546
lfingers 7.12502
lthumb 2.1224 44.0238
rfemur -32.1667 -0.285211 22.6171
rtibia 58.9542
rfoot -32.385 13.3103
rtoes -11.2196
lfemur -20.8187 -0.772758 -5.45964
ltibia 55.0979
lfoot -43.9544 -8.78037
ltoes -16.886
296
root 6.48525 18.6966 29.7143 -19.5884 76.9673 -24.4063
lowerback 13.0442 -0.841917 -7.74602
upperback 0.0358259 -2.30933 -0.824869
thorax -7.03011 -0.852186 3.9229
lowerneck -13.5453 -9.9149 -4.51964
upperneck 42.4852 -14.8675 5.24648
head 19.5209 -5.47987 0.478399
rclavicle 2.127e-014 1.43125e-014
rhumerus -42.0041 -11.4161 -81.0818
rradius 31.759
rwrist -7.49726
rhand -26.333 -11.0458
rfingers 7.12502
rthumb 0.224153 -41.0254
lclavicle 2.127e-014 1.43125e-014
lhumerus -40.5145 1.09589 70.9178
lradius 28.2518
lwrist 19.6256
lhand -24.3024 14.4541
lfingers 7.12502
lthumb 2.18531 44.4227
rfemur -32.4469 -0.424117 22.6132
rtibia 59.5115
rfoot -32.4382 13.4514
rtoes -11.3445
lfemur -20.9224 -0.658672 -5.44201
ltibia 55.4352
lfoot -44.0665 -9.01687
ltoes -16.8917
297
root 6.49704 18.6648 30.1273 -19.0913 76.892 -23.8694
lowerback 12.9089 -0.787052 -7.82286
upperback 0.0068584 -2.24114 -0.884161
thorax -6.99326 -0.818263 3.88647
lowerneck -13.509 -9.9716 -4.52335
upperneck 42.5168 -14.9835 5.30141
head 19.5518 -5.51652 0.482582
rclavicle -2.64384e-014 3.81667e-014
rhumerus -41.5837 -11.0965 -81.4289
rradius 32.1437
rwrist -7.69392
rhand -26.5939 -11.0315
rfingers 7.12502
rthumb -0.0278916 -41.0112
lclavicle -2.64384e-014 3.81667e-014
lhumerus -40.7701 2.24054 69.8217
lradius 27.4082
lwrist 18.5801
lhand -24.3926 15.027
lfingers 7.12502
lthumb 2.0982 44.9964
rfemur -32.7115 -0.57323 22.6264
rtibia 60.0383
rfoot -32.5122 13.5505
rtoes -11.477
lfemur -21.0323 -0.59388 -5.41067
ltibia 55.7545
lfoot -44.1502 -9.23986
ltoes -16.8652
298
root 6.50752 18.6355 30.5401 -18.7067 76.835 -23.4493
lowerback 12.7958 -0.750443 -7.8811
upperback -0.0175011 -2.19578 -0.94254
thorax -6.96174 -0.795885 3.84547
lowerneck -13.4719 -10.0181 -4.51704
upperneck 42.5271 -15.0887 5.36278
head 19.5674 -5.54822 0.490371
rclavicle 4.81059e-014 1.90833e-014
rhumerus -41.141 -10.8136 -81.7799
rradius 32.5011
rwrist -7.83077
rhand -26.8281 -10.965
rfingers 7.12502
rthumb -0.254082 -40.9446
lclavicle 4.81059e-014 1.90833e-014
lhumerus -41.0437 3.46746 68.6786
lradius 26.6422
lwrist 17.5856
lhand -24.6551 15.7829
lfingers 7.12502
lthumb 1.84465 45.7547
rfemur -32.9555 -0.731477 22.6643
rtibia 60.5222
rfoot -32.5988 13.616
rtoes -11.6024
lfemur -21.1511 -0.56611 -5.35669
ltibia 56.0543
lfoot -44.1943 -9.45075
ltoes -16.804
299
root 6.51685 18.6091 30.9528 -18.4239 76.7889 -23.1238
lowerback 12.7127 -0.729872 -7.9278
upperback -0.033925 -2.1718 -0.996955
thorax -6.93614 -0.784087 3.80694
lowerneck -13.4378 -10.0512 -4.50158
upperneck 42.5202 -15.1743 5.42129
head 19.569 -5.57253 0.499218
rclavicle 5.74488e-014 -3.49861e-014
rhumerus -40.67 -10.5769 -82.1262
rradius 32.8131
rwrist -7.9049
rhand -27.0379 -10.8663
rfingers 7.12502
rthumb -0.456688 -40.8455
lclavicle 5.74488e-014 -3.49861e-014
lhumerus -41.3529 4.74996 67.5055
lradius 25.9802
lwrist 16.6475
lhand -25.0372 16.7012
lfingers 7.12502
lthumb 1.47566 46.6759
rfemur -33.1602 -0.886924 22.7235
rtibia 60.9539
rfoot -32.6987 13.6487
rtoes -11.7445
lfemur -21.2575 -0.563481 -5.28288
ltibia 56.3255
lfoot -44.1942 -9.64764
ltoes -16.7145
300
root 6.52516 18.5861 31.3649 -18.2203 76.7514 -22.8692
lowerback 12.6601 -0.726781 -7.96374
upperback -0.0433042 -2.17135 -1.04582
thorax -6.91737 -0.783837 3.77332
lowerneck -13.4086 -10.0683 -4.48116
upperneck 42.5016 -15.2312 5.46933
head 19.5592 -5.58738 0.508011
rclavicle -2.98177e-014 1.90833e-014
rhumerus -40.1735 -10.3634 -82.4713
rradius 33.0792
rwrist -7.9471
rhand -27.2381 -10.7519
rfingers 7.12502
rthumb -0.650074 -40.7306
lclavicle -2.98177e-014 1.90833e-014
lhumerus -41.7114 6.0612 66.326
lradius 25.4434
lwrist 15.7978
lhand -25.5129 17.7531
lfingers 7.12502
lthumb 1.01621 47.7304
rfemur -33.3227 -1.0364 22.7964
rtibia 61.3285
rfoot -32.8014 13.6553
rtoes -11.8777
lfemur -21.3468 -0.581789 -5.19691
ltibia 56.5619
lfoot -44.15 -9.83621
ltoes -16.5908
301
root 6.53247 18.5664 31.7766 -18.0811 76.7175 -22.6708
lowerback 12.6358 -0.737928 -7.99323
upperback -0.0461152 -2.19058 -1.08709
thorax -6.90503 -0.793095 3.74843
lowerneck -13.3871 -10.0695 -4.45986
upperneck 42.4779 -15.2577 5.50426
head 19.543 -5.59249 0.516421
rclavicle -6.26172e-014 2.54444e-014
rhumerus -39.6555 -10.171 -82.8115
rradius 33.299
rwrist -7.98147
rhand -27.4328 -10.6398
rfingers 7.12502
rthumb -0.838053 -40.6179
lclavicle -6.26172e-014 2.54444e-014
lhumerus -42.1203 7.35777 65.1718
lradius 25.0412
lwrist 15.0691
lhand -26.0627 18.9097
lfingers 7.12502
lthumb 0.485164 48.8889
rfemur -33.4446 -1.17742 22.88
rtibia 61.6457
rfoot -32.9039 13.6314
rtoes -12.0261
lfemur -21.4135 -0.610632 -5.10121
ltibia 56.7559
lfoot -44.0606 -10.0128
ltoes -16.4442
302
root 6.5388 18.5501 32.1877 -18.0069 76.6848 -22.5312
lowerback 12.638 -0.762596 -8.01786
upperback -0.0437235 -2.22852 -1.11696
thorax -6.89945 -0.81127 3.73697
lowerneck -13.3757 -10.0552 -4.44572
upperneck 42.4569 -15.2525 5.52708
head 19.5275 -5.5878 0.526432
rclavicle -8.54774e-015 2.06736e-014
rhumerus -39.1212 -9.99044 -83.1459
rradius 33.4741
rwrist -8.01203
rhand -27.6224 -10.5449
rfingers 7.12502
rthumb -1.02123 -40.5222
lclavicle -8.54774e-015 2.06736e-014
lhumerus -42.5728 8.60582 64.0744
lradius 24.7687
lwrist 14.4873
lhand -26.6618 20.1227
lfingers 7.12502
lthumb -0.0934315 50.1024
rfemur -33.5304 -1.30788 22.9745
rtibia 61.9075
rfoot -33.0001 13.579
rtoes -12.1944
lfemur -21.459 -0.646841 -4.99539
ltibia 56.9058
lfoot -43.9315 -10.1718
ltoes -16.3075
303
root 6.5441 18.5371 32.5986 -17.9866 76.6529 -22.4428
lowerback 12.662 -0.79711 -8.03871
upperback -0.0371008 -2.28023 -1.1375
thorax -6.89969 -0.835969 3.7364
lowerneck -13.3746 -10.0288 -4.43344
upperneck 42.4428 -15.2234 5.53899
head 19.5156 -5.57496 0.536139
rclavicle -5.86415e-014 6.36111e-015
rhumerus -38.5804 -9.82236 -83.4733
rradius 33.6085
rwrist -8.03512
rhand -27.7928 -10.4622
rfingers 7.12502
rthumb -1.18582 -40.4387
lclavicle -5.86415e-014 6.36111e-015
lhumerus -43.0491 9.77369 63.0561
lradius 24.6111
lwrist 14.057
lhand -27.2771 21.3331
lfingers 7.12502
lthumb -0.687717 51.3117
rfemur -33.5863 -1.42563 23.0784
rtibia 62.1171
rfoot -33.088 13.501
rtoes -12.3613
lfemur -21.4851 -0.684941 -4.88041
ltibia 57.0117
lfoot -43.7671 -10.3171
ltoes -16.1795
304
root 6.54843 18.5271 33.0093 -18.0074 76.6225 -22.3958
lowerback 12.7015 -0.838853 -8.06078
upperback -0.0269894 -2.34238 -1.14774
thorax -6.90316 -0.865485 3.74979
lowerneck -13.3856 -9.99391 -4.43006
upperneck 42.4406 -15.1747 5.54166
head 19.5126 -5.55612 0.54646
rclavicle -4.96962e-015 -1.59028e-015
rhumerus -38.0413 -9.65142 -83.8009
rradius 33.7125
rwrist -8.07644
rhand -27.9673 -10.4051
rfingers 7.12502
rthumb -1.35433 -40.3805
lclavicle -4.96962e-015 -1.59028e-015
lhumerus -43.5289 10.841 62.1422
lradius 24.5486
lwrist 13.7894
lhand -27.8955 22.484
lfingers 7.12502
lthumb -1.28501 52.4599
rfemur -33.6174 -1.5345 23.1892
rtibia 62.2774
rfoot -33.1629 13.4081
rtoes -12.548
lfemur -21.4956 -0.725803 -4.7592
ltibia 57.0779
lfoot -43.5863 -10.4476
ltoes -16.0529
305
root 6.55189 18.5199 33.4205 -18.0894 76.5936 -22.4104
lowerback 12.7532 -0.882642 -8.08562
upperback -0.0128335 -2.40791 -1.14703
thorax -6.9081 -0.896421 3.77738
lowerneck -13.3998 -9.95734 -4.43539
upperneck 42.4466 -15.1201 5.54261
head 19.5164 -5.53595 0.558518
rclavicle 3.04141e-014 -2.06736e-014
rhumerus -37.5127 -9.49571 -84.1214
rradius 33.7864
rwrist -8.11648
rhand -28.1261 -10.3628
rfingers 7.12502
rthumb -1.50773 -40.3372
lclavicle 3.04141e-014 -2.06736e-014
lhumerus -43.9892 11.7929 61.3501
lradius 24.5614
lwrist 13.6764
lhand -28.4958 23.5195
lfingers 7.12502
lthumb -1.86475 53.4911
rfemur -33.6215 -1.63299 23.3142
rtibia 62.39
rfoot -33.2346 13.3006
rtoes -12.7222
lfemur -21.4893 -0.769419 -4.62484
ltibia 57.1084
lfoot -43.3944 -10.5646
ltoes -15.9397
306
root 6.55483 18.5154 33.8322 -18.2175 76.5658 -22.4726
lowerback 12.8063 -0.923508 -8.11244
upperback 0.00705237 -2.46919 -1.13964
thorax -6.90771 -0.925485 3.81249
lowerneck -13.4159 -9.92319 -4.44246
upperneck 42.4589 -15.0685 5.54314
head 19.5253 -5.51675 0.569974
rclavicle -4.47266e-014 1.74931e-014
rhumerus -37.0032 -9.35774 -84.4401
rradius 33.8399
rwrist -8.15786
rhand -28.2721 -10.3402
rfingers 7.12502
rthumb -1.64876 -40.3136
lclavicle -4.47266e-014 1.74931e-014
lhumerus -44.4022 12.617 60.6944
lradius 24.626
lwrist 13.7018
lhand -29.0429 24.3891
lfingers 7.12502
lthumb -2.39316 54.3554
rfemur -33.5971 -1.71881 23.4493
rtibia 62.4554
rfoot -33.3031 13.2016
rtoes -12.8753
lfemur -21.4662 -0.813492 -4.4804
ltibia 57.1081
lfoot -43.2044 -10.6767
ltoes -15.831
307
root 6.55738 18.5133 34.2441 -18.3599 76.539 -22.556
lowerback 12.8532 -0.958432 -8.13888
upperback 0.0294493 -2.52162 -1.13013
thorax -6.90203 -0.950539 3.84786
lowerneck -13.4239 -9.89635 -4.45396
upperneck 42.4726 -15.0281 5.54776
head 19.5351 -5.50215 0.582186
rclavicle 3.57812e-014 1.59028e-015
rhumerus -36.5214 -9.24462 -84.7531
rradius 33.8758
rwrist -8.196
rhand -28.3968 -10.3224
rfingers 7.12502
rthumb -1.76912 -40.2948
lclavicle 3.57812e-014 1.59028e-015
lhumerus -44.7521 13.2997 60.1897
lradius 24.7304
lwrist 13.8625
lhand -29.5206 25.0706
lfingers 7.12502
lthumb -2.85453 55.0312
rfemur -33.5528 -1.79609 23.5858
rtibia 62.4754
rfoot -33.3686 13.1122
rtoes -13.0144
lfemur -21.4335 -0.867385 -4.33615
ltibia 57.0806
lfoot -43.0276 -10.7804
ltoes -15.7098
